<svg width="173" height="105" viewBox="0 0 173 105" fill="none" xmlns="http://www.w3.org/2000/svg">
<path d="M119.78 55.0312H46.8896V105H119.78V55.0312Z" fill="#FAF8FF"/>
<path d="M123.846 49.1866H52.1177C51.8866 49.187 51.6651 49.2795 51.5018 49.4439C51.3384 49.6083 51.2464 49.8312 51.2461 50.0637V98.863C51.2461 98.9782 51.2686 99.0922 51.3124 99.1986C51.3562 99.3051 51.4204 99.4017 51.5014 99.4832C51.5823 99.5646 51.6784 99.6292 51.7841 99.6733C51.8899 99.7174 52.0032 99.7401 52.1177 99.74H123.846C123.961 99.7401 124.074 99.7174 124.18 99.6733C124.285 99.6292 124.382 99.5646 124.462 99.4832C124.543 99.4017 124.608 99.3051 124.651 99.1986C124.695 99.0922 124.718 98.9782 124.718 98.863V50.0637C124.717 49.8312 124.625 49.6083 124.462 49.4439C124.299 49.2795 124.077 49.187 123.846 49.1866ZM124.137 98.863C124.137 98.9014 124.129 98.9395 124.115 98.975C124.1 99.0106 124.079 99.0428 124.052 99.07C124.025 99.0972 123.993 99.1187 123.957 99.1334C123.922 99.148 123.884 99.1555 123.846 99.1554H52.1177C52.0795 99.1555 52.0417 99.148 52.0064 99.1334C51.9711 99.1187 51.939 99.0972 51.912 99.07C51.885 99.0428 51.8636 99.0106 51.849 98.975C51.8345 98.9395 51.827 98.9014 51.8272 98.863V50.0637C51.8273 49.9862 51.8579 49.9119 51.9124 49.8571C51.9668 49.8023 52.0407 49.7714 52.1177 49.7713H123.846C123.923 49.7714 123.997 49.8023 124.051 49.8571C124.106 49.9119 124.137 49.9862 124.137 50.0637V98.863Z" fill="#3F3D56"/>
<path d="M87.4127 83.6681H55.4456C55.2114 83.6681 55.0215 83.8592 55.0215 84.0949V87.0401C55.0215 87.2758 55.2114 87.4668 55.4456 87.4668H87.4127C87.6469 87.4668 87.8368 87.2758 87.8368 87.0401V84.0949C87.8368 83.8592 87.6469 83.6681 87.4127 83.6681Z" fill="#3F3D56"/>
<path d="M109.324 80.4541H98.8716C98.7571 80.4541 98.6438 80.4768 98.538 80.5208C98.4323 80.5649 98.3362 80.6295 98.2553 80.711C98.1743 80.7924 98.1101 80.8891 98.0663 80.9955C98.0225 81.1019 98 81.2159 98 81.3311V89.5124C98 89.6275 98.0225 89.7416 98.0663 89.848C98.1101 89.9544 98.1743 90.0511 98.2553 90.1325C98.3362 90.214 98.4323 90.2786 98.538 90.3226C98.6438 90.3667 98.7571 90.3894 98.8716 90.3894H109.324C109.439 90.3894 109.552 90.3667 109.658 90.3226C109.764 90.2786 109.86 90.214 109.941 90.1325C110.021 90.0511 110.086 89.9544 110.129 89.848C110.173 89.7416 110.196 89.6275 110.196 89.5124V81.3311C110.196 81.2159 110.173 81.1019 110.129 80.9955C110.086 80.8891 110.021 80.7924 109.941 80.711C109.86 80.6295 109.764 80.5649 109.658 80.5208C109.552 80.4768 109.439 80.4541 109.324 80.4541ZM109.615 89.5124C109.615 89.5899 109.584 89.6642 109.53 89.7189C109.475 89.7737 109.401 89.8046 109.324 89.8047H98.8716C98.7946 89.8046 98.7207 89.7737 98.6663 89.7189C98.6118 89.6642 98.5812 89.5899 98.5811 89.5124V81.3311C98.5809 81.2927 98.5884 81.2546 98.6029 81.2191C98.6175 81.1836 98.6389 81.1513 98.6659 81.1241C98.6929 81.097 98.725 81.0754 98.7603 81.0608C98.7956 81.0461 98.8334 81.0387 98.8716 81.0388H109.324C109.362 81.0387 109.4 81.0461 109.436 81.0608C109.471 81.0754 109.503 81.097 109.53 81.1241C109.557 81.1513 109.578 81.1836 109.593 81.2191C109.607 81.2546 109.615 81.2927 109.615 81.3311V89.5124Z" fill="#3F3D56"/>
<path d="M107.236 82.3419H100.958C100.724 82.3419 100.534 82.533 100.534 82.7687V83.3987C100.534 83.6344 100.724 83.8255 100.958 83.8255H107.236C107.47 83.8255 107.66 83.6344 107.66 83.3987V82.7687C107.66 82.533 107.47 82.3419 107.236 82.3419Z" fill="#3F3D56"/>
<path d="M107.236 84.6797H100.958C100.724 84.6797 100.534 84.8708 100.534 85.1065V85.7365C100.534 85.9722 100.724 86.1632 100.958 86.1632H107.236C107.47 86.1632 107.66 85.9722 107.66 85.7365V85.1065C107.66 84.8708 107.47 84.6797 107.236 84.6797Z" fill="#3F3D56"/>
<path d="M107.236 87.0173H100.958C100.724 87.0173 100.534 87.2084 100.534 87.4441V88.0741C100.534 88.3098 100.724 88.5009 100.958 88.5009H107.236C107.47 88.5009 107.66 88.3098 107.66 88.0741V87.4441C107.66 87.2084 107.47 87.0173 107.236 87.0173Z" fill="#3F3D56"/>
<path d="M156 27H155.729V79.5302H125V80H156V27Z" fill="#3F3D56"/>
<path d="M47 80H16V32H16.2707V79.5745H47V80Z" fill="#3F3D56"/>
<path d="M32.9742 15.813H32.6109V5.797C32.6109 5.03573 32.4619 4.28191 32.1724 3.57858C31.8828 2.87525 31.4585 2.2362 30.9235 1.6979C30.3885 1.1596 29.7534 0.732591 29.0545 0.441266C28.3555 0.14994 27.6064 -2.24177e-06 26.8498 0H5.76108C5.00452 -1.68132e-06 4.25537 0.14994 3.55641 0.441266C2.85744 0.732591 2.22235 1.1596 1.68738 1.6979C1.15241 2.2362 0.728056 2.87526 0.438535 3.57858C0.149014 4.28191 -8.35459e-07 5.03573 0 5.797V60.7456C-8.35462e-07 61.5069 0.149014 62.2607 0.438535 62.964C0.728057 63.6674 1.15241 64.3064 1.68738 64.8447C2.22235 65.383 2.85745 65.81 3.55641 66.1014C4.25538 66.3927 5.00453 66.5426 5.76108 66.5426H26.8498C27.6064 66.5426 28.3555 66.3927 29.0545 66.1014C29.7535 65.81 30.3885 65.383 30.9235 64.8447C31.4585 64.3064 31.8828 63.6674 32.1724 62.964C32.4619 62.2607 32.6109 61.5069 32.6109 60.7456V22.9426H32.9742V15.813Z" fill="#3F3D56"/>
<path d="M31.3837 6.13768V61.0062C31.3839 62.1544 30.9308 63.2556 30.1241 64.0676C29.3174 64.8797 28.2231 65.336 27.082 65.3362H5.89151C4.75043 65.336 3.65618 64.8797 2.84946 64.0676C2.04274 63.2556 1.58965 62.1544 1.58984 61.0062V6.13768C1.58997 4.98974 2.04321 3.88884 2.84991 3.07712C3.6566 2.2654 4.75067 1.80932 5.89151 1.8092H8.46241C8.33589 2.12149 8.28763 2.46028 8.32189 2.79575C8.35614 3.13122 8.47186 3.45306 8.65884 3.73293C8.84582 4.0128 9.09833 4.24211 9.39413 4.40065C9.68993 4.55919 10.0199 4.6421 10.3551 4.64208H22.4367C22.7718 4.64211 23.1019 4.5592 23.3977 4.40066C23.6935 4.24212 23.946 4.01281 24.133 3.73294C24.3199 3.45307 24.4357 3.13122 24.4699 2.79575C24.5042 2.46028 24.4559 2.12149 24.3294 1.8092H27.0821C28.2229 1.80933 29.317 2.2654 30.1237 3.07712C30.9303 3.88884 31.3836 4.98974 31.3837 6.13768Z" fill="#EEEDF5"/>
<path d="M26.0417 15.9019H7.36047C7.16139 15.9019 7 16.0643 7 16.2646C7 16.4649 7.16139 16.6273 7.36047 16.6273H26.0417C26.2408 16.6273 26.4022 16.4649 26.4022 16.2646C26.4022 16.0643 26.2408 15.9019 26.0417 15.9019Z" fill="#3F3D56"/>
<path d="M26.0417 18.1991H7.36047C7.16139 18.1991 7 18.3615 7 18.5618C7 18.7621 7.16139 18.9245 7.36047 18.9245H26.0417C26.2408 18.9245 26.4022 18.7621 26.4022 18.5618C26.4022 18.3615 26.2408 18.1991 26.0417 18.1991Z" fill="#3F3D56"/>
<path d="M25.8278 25.5502H7.14661C6.94752 25.5502 6.78613 25.7126 6.78613 25.9129C6.78613 26.1132 6.94752 26.2756 7.14661 26.2756H25.8278C26.0269 26.2756 26.1883 26.1132 26.1883 25.9129C26.1883 25.7126 26.0269 25.5502 25.8278 25.5502Z" fill="#3F3D56"/>
<path d="M25.8278 27.8474H7.14661C6.94752 27.8474 6.78613 28.0098 6.78613 28.2101C6.78613 28.4105 6.94752 28.5729 7.14661 28.5729H25.8278C26.0269 28.5729 26.1883 28.4105 26.1883 28.2101C26.1883 28.0098 26.0269 27.8474 25.8278 27.8474Z" fill="#3F3D56"/>
<path d="M25.8278 30.1447H7.14661C6.94752 30.1447 6.78613 30.3071 6.78613 30.5074C6.78613 30.7077 6.94752 30.8701 7.14661 30.8701H25.8278C26.0269 30.8701 26.1883 30.7077 26.1883 30.5074C26.1883 30.3071 26.0269 30.1447 25.8278 30.1447Z" fill="#3F3D56"/>
<path d="M13.6187 60.4988C12.1036 60.4988 10.6225 60.0467 9.36267 59.1997C8.10287 58.3527 7.12097 57.1488 6.54115 55.7402C5.96133 54.3317 5.80962 52.7818 6.10521 51.2864C6.4008 49.7911 7.13041 48.4176 8.20178 47.3396C9.27316 46.2615 10.6382 45.5273 12.1242 45.2299C13.6102 44.9325 15.1506 45.0851 16.5504 45.6686C17.9502 46.252 19.1466 47.24 19.9884 48.5077C20.8302 49.7753 21.2795 51.2657 21.2795 52.7903C21.2772 54.834 20.4693 56.7934 19.0332 58.2385C17.597 59.6836 15.6498 60.4965 13.6187 60.4988ZM13.6187 45.3621C12.1587 45.3621 10.7314 45.7978 9.51744 46.614C8.30345 47.4302 7.35726 48.5903 6.79852 49.9477C6.23979 51.305 6.09359 52.7985 6.37844 54.2395C6.66328 55.6804 7.36636 57.004 8.39877 58.0428C9.43119 59.0817 10.7466 59.7891 12.1786 60.0758C13.6106 60.3624 15.0949 60.2153 16.4438 59.6531C17.7927 59.0908 18.9456 58.1387 19.7568 56.9172C20.5679 55.6956 21.0009 54.2595 21.0009 52.7903C20.9987 50.8209 20.2202 48.9328 18.8363 47.5402C17.4523 46.1476 15.5759 45.3643 13.6187 45.3621Z" fill="#3F3D56"/>
<path d="M172.974 15.813H172.611V5.797C172.611 5.03573 172.462 4.28191 172.172 3.57858C171.883 2.87525 171.458 2.2362 170.924 1.6979C170.389 1.1596 169.753 0.732591 169.054 0.441266C168.356 0.14994 167.606 -2.24177e-06 166.85 0H145.761C145.005 -1.68132e-06 144.255 0.14994 143.556 0.441266C142.857 0.732591 142.222 1.1596 141.687 1.6979C141.152 2.2362 140.728 2.87526 140.439 3.57858C140.149 4.28191 140 5.03573 140 5.797V60.7456C140 61.5069 140.149 62.2607 140.439 62.964C140.728 63.6674 141.152 64.3064 141.687 64.8447C142.222 65.383 142.857 65.81 143.556 66.1014C144.255 66.3927 145.005 66.5426 145.761 66.5426H166.85C167.606 66.5426 168.356 66.3927 169.054 66.1014C169.753 65.81 170.389 65.383 170.924 64.8447C171.458 64.3064 171.883 63.6674 172.172 62.964C172.462 62.2607 172.611 61.5069 172.611 60.7456V22.9426H172.974V15.813Z" fill="#3F3D56"/>
<path d="M171.384 6.13768V61.0062C171.384 62.1544 170.931 63.2556 170.124 64.0676C169.317 64.8797 168.223 65.336 167.082 65.3362H145.892C144.75 65.336 143.656 64.8797 142.849 64.0676C142.043 63.2556 141.59 62.1544 141.59 61.0062V6.13768C141.59 4.98974 142.043 3.88884 142.85 3.07712C143.657 2.2654 144.751 1.80932 145.892 1.8092H148.462C148.336 2.12149 148.288 2.46028 148.322 2.79575C148.356 3.13122 148.472 3.45306 148.659 3.73293C148.846 4.0128 149.098 4.24211 149.394 4.40065C149.69 4.55919 150.02 4.6421 150.355 4.64208H162.437C162.772 4.64211 163.102 4.5592 163.398 4.40066C163.693 4.24212 163.946 4.01281 164.133 3.73294C164.32 3.45307 164.436 3.13122 164.47 2.79575C164.504 2.46028 164.456 2.12149 164.329 1.8092H167.082C168.223 1.80933 169.317 2.2654 170.124 3.07712C170.93 3.88884 171.384 4.98974 171.384 6.13768Z" fill="#EEEDF5"/>
<path d="M166.042 15.9019H147.36C147.161 15.9019 147 16.0643 147 16.2646C147 16.4649 147.161 16.6273 147.36 16.6273H166.042C166.241 16.6273 166.402 16.4649 166.402 16.2646C166.402 16.0643 166.241 15.9019 166.042 15.9019Z" fill="#3F3D56"/>
<path d="M166.042 18.1991H147.36C147.161 18.1991 147 18.3615 147 18.5618C147 18.7621 147.161 18.9245 147.36 18.9245H166.042C166.241 18.9245 166.402 18.7621 166.402 18.5618C166.402 18.3615 166.241 18.1991 166.042 18.1991Z" fill="#3F3D56"/>
<path d="M165.828 25.5502H147.147C146.948 25.5502 146.786 25.7126 146.786 25.9129C146.786 26.1132 146.948 26.2756 147.147 26.2756H165.828C166.027 26.2756 166.188 26.1132 166.188 25.9129C166.188 25.7126 166.027 25.5502 165.828 25.5502Z" fill="#3F3D56"/>
<path d="M165.828 27.8474H147.147C146.948 27.8474 146.786 28.0098 146.786 28.2101C146.786 28.4105 146.948 28.5729 147.147 28.5729H165.828C166.027 28.5729 166.188 28.4105 166.188 28.2101C166.188 28.0098 166.027 27.8474 165.828 27.8474Z" fill="#3F3D56"/>
<path d="M165.828 30.1447H147.147C146.948 30.1447 146.786 30.3071 146.786 30.5074C146.786 30.7077 146.948 30.8701 147.147 30.8701H165.828C166.027 30.8701 166.188 30.7077 166.188 30.5074C166.188 30.3071 166.027 30.1447 165.828 30.1447Z" fill="#3F3D56"/>
<path d="M156.619 56.4988C155.104 56.4988 153.622 56.0467 152.363 55.1997C151.103 54.3527 150.121 53.1488 149.541 51.7402C148.961 50.3317 148.81 48.7818 149.105 47.2864C149.401 45.7911 150.13 44.4176 151.202 43.3396C152.273 42.2615 153.638 41.5273 155.124 41.2299C156.61 40.9325 158.151 41.0851 159.55 41.6686C160.95 42.252 162.147 43.24 162.988 44.5077C163.83 45.7753 164.279 47.2657 164.279 48.7903C164.277 50.834 163.469 52.7934 162.033 54.2385C160.597 55.6836 158.65 56.4965 156.619 56.4988ZM156.619 41.3621C155.159 41.3621 153.731 41.7978 152.517 42.614C151.303 43.4302 150.357 44.5903 149.799 45.9477C149.24 47.305 149.094 48.7985 149.378 50.2395C149.663 51.6804 150.366 53.004 151.399 54.0428C152.431 55.0817 153.747 55.7891 155.179 56.0758C156.611 56.3624 158.095 56.2153 159.444 55.6531C160.793 55.0908 161.946 54.1387 162.757 52.9172C163.568 51.6956 164.001 50.2595 164.001 48.7903C163.999 46.8209 163.22 44.9328 161.836 43.5402C160.452 42.1476 158.576 41.3643 156.619 41.3621Z" fill="#3F3D56"/>
<path d="M37.2181 77.1143H31.2803V83.0891H37.2181V77.1143Z" fill="#D0CDE1"/>
<path d="M40.8235 79.6749H33.6133V72.4198H40.8235V79.6749ZM33.9268 79.3595H40.51V72.7352H33.9268V79.3595Z" fill="#3F3D56"/>
<path d="M144.938 77.6945H139V83.6693H144.938V77.6945Z" fill="#D0CDE1"/>
<path d="M148.543 80.2551H141.333V73H148.543V80.2551ZM141.646 79.9397H148.23V73.3154H141.646V79.9397Z" fill="#3F3D56"/>
</svg>
