<svg width="161" height="132" viewBox="0 0 161 132" fill="none" xmlns="http://www.w3.org/2000/svg">
<path d="M127.682 130.051C125.862 128.522 124.756 126.106 125.046 123.755C125.336 121.404 127.132 119.242 129.461 118.743C131.79 118.243 134.445 119.626 135.153 121.888C135.542 117.526 135.991 112.982 138.323 109.268C140.435 105.905 144.092 103.499 148.056 103.068C152.02 102.638 156.194 104.264 158.666 107.374C161.139 110.485 161.744 115.008 160.012 118.579C158.737 121.21 156.387 123.168 153.925 124.761C145.968 129.864 136.426 131.94 127.053 130.605L127.682 130.051Z" fill="#F2F2F2"/>
<path d="M154.335 104.089C151.02 106.723 147.979 109.67 145.256 112.885C140.994 117.9 137.545 123.523 135.029 129.558C134.845 129.998 135.578 130.19 135.76 129.754C139.876 119.947 146.447 111.302 154.871 104.612C155.249 104.311 154.711 103.791 154.335 104.089Z" fill="white"/>
<path d="M41.6481 130.806C43.9231 128.895 45.3049 125.876 44.9425 122.938C44.5801 119.999 42.3356 117.298 39.4241 116.674C36.5125 116.05 33.1936 117.777 32.3093 120.604C31.8226 115.154 31.2618 109.475 28.3465 104.833C25.7067 100.631 21.1346 97.6233 16.1795 97.0853C11.2244 96.5473 6.00737 98.5793 2.91705 102.467C-0.173258 106.354 -0.929908 112.006 1.23447 116.469C2.82889 119.757 5.76637 122.204 8.84412 124.195C18.6632 130.546 30.8438 133.194 42.4338 131.499" fill="#F2F2F2"/>
<path d="M7.8308 98.1131C11.9745 101.457 15.776 105.196 19.1802 109.277C22.5849 113.354 25.5823 117.749 28.1305 122.399C29.5548 125.008 30.8343 127.692 31.9632 130.439C32.1934 130.997 31.2775 131.241 31.0498 130.688C29.0502 125.845 26.5762 121.209 23.6635 116.844C20.7649 112.495 17.4472 108.435 13.7572 104.721C11.6701 102.621 9.46808 100.637 7.16103 98.7766C6.68815 98.3952 7.36183 97.7348 7.8308 98.1131Z" fill="white"/>
<path d="M127.355 131.711H34.2168V36.671C34.2168 16.4505 50.7577 0 71.0892 0H90.4824C110.814 0 127.355 16.4505 127.355 36.671V131.711Z" fill="#F2F2F2"/>
<path d="M107.962 131.711H34.2169V36.671C34.1966 28.923 36.6635 21.3707 41.2586 15.1139C41.428 14.8843 41.5969 14.6577 41.7712 14.4335C43.9938 11.5344 46.6387 8.98113 49.6188 6.85808C49.7871 6.73627 49.9561 6.61657 50.1276 6.49687C52.6212 4.78067 55.3186 3.37771 58.1585 2.31993C58.3271 2.25636 58.4988 2.19266 58.6705 2.13157C61.2388 1.22002 63.9012 0.59561 66.6085 0.269873C66.7763 0.247071 66.9486 0.229228 67.121 0.211385C69.7592 -0.0691596 72.42 -0.0691596 75.0582 0.211385C75.23 0.229228 75.4024 0.247069 75.5722 0.270117C78.2787 0.595875 80.9404 1.22021 83.5081 2.13158C83.6799 2.19268 83.8516 2.25637 84.0207 2.32006C86.8255 3.3645 89.4912 4.74652 91.9582 6.43529C92.1296 6.55239 92.3012 6.67209 92.4702 6.79179C94.1406 7.97763 95.7096 9.29873 97.1612 10.7416C98.3252 11.8989 99.41 13.1326 100.408 14.4343C100.582 14.6577 100.751 14.8843 100.92 15.1136C105.515 21.3705 107.982 28.9228 107.962 36.671V131.711Z" fill="#CCCCCC"/>
<path d="M101.966 89.2032C104.22 89.2032 106.048 87.3853 106.048 85.1427C106.048 82.9002 104.22 81.0823 101.966 81.0823C99.7107 81.0823 97.8828 82.9002 97.8828 85.1427C97.8828 87.3853 99.7107 89.2032 101.966 89.2032Z" fill="#2F2E41"/>
<path d="M87.6758 104.176H54.5033C54.0665 104.178 53.6465 104.008 53.3356 103.703C53.0246 103.398 52.8481 102.982 52.8447 102.548V28.9092C52.8481 28.4747 53.0246 28.0593 53.3356 27.7541C53.6465 27.4489 54.0665 27.2788 54.5033 27.2812H87.6758C88.1126 27.2788 88.5326 27.4489 88.8436 27.7541C89.1545 28.0593 89.331 28.4747 89.3344 28.9092V102.548C89.331 102.982 89.1545 103.398 88.8436 103.703C88.5326 104.008 88.1126 104.178 87.6758 104.176Z" fill="white"/>
<path d="M89.3344 51.1084H52.8447V51.616H89.3344V51.1084Z" fill="#CCCCCC"/>
<path d="M89.4623 80.0671H52.9727V80.5747H89.4623V80.0671Z" fill="#CCCCCC"/>
<path d="M64.8375 27.2812H64.3271V104.43H64.8375V27.2812Z" fill="#CCCCCC"/>
<path d="M77.5963 27.2812H77.0859V104.43H77.5963V27.2812Z" fill="#CCCCCC"/>
</svg>
